<svg width="50" height="50" viewBox="0 0 50 50" fill="none" xmlns="http://www.w3.org/2000/svg">
<rect width="50" height="50" rx="7" fill="url(#paint0_linear_103_775)"/>
<g clip-path="url(#clip0_103_775)">
<rect width="15.8354" height="15.8354" rx="2" transform="matrix(-0.000269901 1 -0.86589 0.500234 39.5697 12.9569)" fill="url(#paint1_linear_103_775)"/>
<rect width="16.1146" height="16.1146" rx="2" transform="matrix(0.870889 0.491481 -0.870889 0.491481 25.0339 4)" fill="url(#paint2_linear_103_775)"/>
<rect width="15.8354" height="15.8354" rx="2" transform="matrix(-0.000269957 -1 0.86589 0.500234 10.8578 28.7924)" fill="url(#paint3_linear_103_775)"/>
</g>
<rect x="11" y="38" width="28" height="3" rx="1.5" fill="white"/>
<rect x="15" y="43" width="20" height="3" rx="1.5" fill="white"/>
<defs>
<linearGradient id="paint0_linear_103_775" x1="0" y1="25" x2="50" y2="25" gradientUnits="userSpaceOnUse">
<stop stop-color="#003C74"/>
<stop offset="1" stop-color="#0071DA"/>
</linearGradient>
<linearGradient id="paint1_linear_103_775" x1="7.9177" y1="0" x2="7.9177" y2="15.8354" gradientUnits="userSpaceOnUse">
<stop offset="1" stop-color="white"/>
</linearGradient>
<linearGradient id="paint2_linear_103_775" x1="8.05729" y1="0" x2="8.05729" y2="16.1146" gradientUnits="userSpaceOnUse">
<stop stop-color="white"/>
</linearGradient>
<linearGradient id="paint3_linear_103_775" x1="15.8354" y1="0" x2="1.90735e-06" y2="15.8354" gradientUnits="userSpaceOnUse">
<stop stop-color="white"/>
<stop offset="0.265625" stop-color="white"/>
</linearGradient>
<clipPath id="clip0_103_775">
<rect width="32" height="32" fill="white" transform="translate(9 4)"/>
</clipPath>
</defs>
</svg>
