<svg width="50" height="50" viewBox="0 0 50 50" fill="none" xmlns="http://www.w3.org/2000/svg">
<mask id="path-1-inside-1_855_484" fill="white">
<path d="M44.3573 28.3503C45.7827 25.7132 46.2942 22.8178 45.838 19.968C45.3819 17.1182 43.9751 14.4192 41.7651 12.1545C39.5552 9.88975 36.6238 8.14285 33.2788 7.09723C29.9337 6.05161 26.2984 5.74585 22.7547 6.21204C19.211 6.67824 15.8895 7.8992 13.1392 9.74671C10.3888 11.5942 8.31102 14.0001 7.12402 16.7117C5.93701 19.4233 5.68458 22.3406 6.39322 25.1571C7.10187 27.9737 8.74545 30.5857 11.1514 32.7187L13.5134 31.0137C11.4902 29.22 10.108 27.0235 9.51209 24.6549C8.91617 22.2864 9.12845 19.8332 10.1266 17.5529C11.1248 15.2726 12.8721 13.2495 15.1849 11.6959C17.4978 10.1422 20.2909 9.11549 23.2709 8.72345C26.251 8.33141 29.308 8.58854 32.1209 9.46783C34.9339 10.3471 37.399 11.8161 39.2574 13.7206C41.1157 15.6251 42.2988 17.8947 42.6824 20.2912C43.0659 22.6877 42.6358 25.1226 41.4372 27.3402L44.3573 28.3503Z"/>
</mask>
<path d="M44.3573 28.3503C45.7827 25.7132 46.2942 22.8178 45.838 19.968C45.3819 17.1182 43.9751 14.4192 41.7651 12.1545C39.5552 9.88975 36.6238 8.14285 33.2788 7.09723C29.9337 6.05161 26.2984 5.74585 22.7547 6.21204C19.211 6.67824 15.8895 7.8992 13.1392 9.74671C10.3888 11.5942 8.31102 14.0001 7.12402 16.7117C5.93701 19.4233 5.68458 22.3406 6.39322 25.1571C7.10187 27.9737 8.74545 30.5857 11.1514 32.7187L13.5134 31.0137C11.4902 29.22 10.108 27.0235 9.51209 24.6549C8.91617 22.2864 9.12845 19.8332 10.1266 17.5529C11.1248 15.2726 12.8721 13.2495 15.1849 11.6959C17.4978 10.1422 20.2909 9.11549 23.2709 8.72345C26.251 8.33141 29.308 8.58854 32.1209 9.46783C34.9339 10.3471 37.399 11.8161 39.2574 13.7206C41.1157 15.6251 42.2988 17.8947 42.6824 20.2912C43.0659 22.6877 42.6358 25.1226 41.4372 27.3402L44.3573 28.3503Z" stroke="#252525" stroke-width="6" mask="url(#path-1-inside-1_855_484)"/>
<mask id="path-2-inside-2_855_484" fill="white">
<path d="M27.6251 37.9471C24.0907 38.1776 20.5433 37.6522 17.3464 36.4247L18.763 34.0633C21.4366 35.0898 24.4033 35.5292 27.359 35.3364L27.6251 37.9471Z"/>
</mask>
<path d="M27.6251 37.9471C24.0907 38.1776 20.5433 37.6522 17.3464 36.4247L18.763 34.0633C21.4366 35.0898 24.4033 35.5292 27.359 35.3364L27.6251 37.9471Z" stroke="#252525" stroke-width="6" mask="url(#path-2-inside-2_855_484)"/>
<path d="M5.5 45L10.8579 30L13.5347 31.0212L11.2674 37.5106L7.5 44L5.5 45Z" fill="#252525"/>
<path d="M8 40.5L8.49537 39.9313L11.9198 37.9542L18.7687 34L20.1373 36.4715L6.57092 44.5065L8 40.5Z" fill="#252525"/>
<circle cx="20" cy="22" r="2" fill="#252525"/>
<circle cx="26" cy="22" r="2" fill="#252525"/>
<circle cx="32" cy="22" r="2" fill="#252525"/>
<path d="M36.4022 29.8464L44.7224 39.7621C45.0774 40.1851 45.0222 40.8159 44.5991 41.1709L41.535 43.742C41.1119 44.097 40.4811 44.0419 40.1261 43.6188L31.8059 33.7032C31.6894 33.5643 31.6128 33.3963 31.5844 33.2172L30.9748 29.3793C30.8564 28.6339 31.5749 28.031 32.2884 28.2771L35.9621 29.5438C36.1335 29.6029 36.2856 29.7075 36.4022 29.8464Z" stroke="black" stroke-width="2"/>
</svg>
