<svg width="50" height="50" viewBox="0 0 50 50" fill="none" xmlns="http://www.w3.org/2000/svg">
<path d="M37.2293 32.9463C37.2293 34.513 36.8459 36.013 36.0793 37.4463C35.3126 38.8463 34.1626 40.013 32.6293 40.9463C31.0959 41.8796 29.2293 42.3963 27.0293 42.4963V46.4963H24.8293V42.4463C21.8626 42.1796 19.4626 41.213 17.6293 39.5463C15.7959 37.8463 14.8126 35.7463 14.6793 33.2463H18.4293C18.5626 34.7463 19.1626 36.113 20.2293 37.3463C21.3293 38.5463 22.8626 39.2796 24.8293 39.5463V25.6963C22.5959 25.0963 20.7959 24.4963 19.4293 23.8963C18.0959 23.2963 16.9626 22.3796 16.0293 21.1463C15.0959 19.8796 14.6293 18.1963 14.6293 16.0963C14.6293 13.463 15.5459 11.2963 17.3793 9.5963C19.2126 7.86297 21.6959 6.92963 24.8293 6.7963V2.5963H27.0293V6.8463C29.7959 7.11297 32.0126 8.01297 33.6793 9.5463C35.3459 11.0796 36.3293 12.9963 36.6293 15.2963H32.9293C32.7293 14.063 32.1126 12.913 31.0793 11.8463C30.0793 10.7796 28.7293 10.113 27.0293 9.8463V23.1963C29.1959 23.763 30.9626 24.363 32.3293 24.9963C33.7293 25.5963 34.8959 26.5296 35.8293 27.7963C36.7626 29.063 37.2293 30.7796 37.2293 32.9463ZM18.1793 15.9463C18.1793 17.813 18.7459 19.2296 19.8793 20.1963C21.0459 21.1296 22.6959 21.913 24.8293 22.5463V9.6963C22.8293 9.7963 21.2126 10.3796 19.9793 11.4463C18.7793 12.513 18.1793 14.013 18.1793 15.9463ZM27.0293 39.6463C29.1626 39.513 30.8126 38.8463 31.9793 37.6463C33.1459 36.413 33.7293 34.8963 33.7293 33.0963C33.7293 31.1963 33.1459 29.763 31.9793 28.7963C30.8459 27.8296 29.1959 27.013 27.0293 26.3463V39.6463Z" fill="#252525"/>
</svg>
