<svg width="39" height="36" viewBox="0 0 39 36" fill="none" xmlns="http://www.w3.org/2000/svg">
<path d="M0 2.12132C0 0.949748 0.949748 0 2.12132 0H36.8787C38.0503 0 39 0.949748 39 2.12132V2.12132C39 2.68393 38.7765 3.2235 38.3787 3.62132L25.0503 16.9497C23.7375 18.2625 23 20.043 23 21.8995V25V29.1005C23 30.957 22.2625 32.7375 20.9497 34.0503L20 35V35C18.4406 36.3645 16 35.2571 16 33.1849V25V21.8995C16 20.043 15.2625 18.2625 13.9497 16.9497L0.62132 3.62132C0.223495 3.2235 0 2.68393 0 2.12132V2.12132Z" fill="#252525"/>
</svg>
