<svg width="50" height="50" viewBox="0 0 50 50" fill="none" xmlns="http://www.w3.org/2000/svg">
<path d="M24 11H46C47.6569 11 49 12.3431 49 14V46C49 47.6569 47.6569 49 46 49H24C22.3431 49 21 47.6569 21 46V14C21 12.3431 22.3431 11 24 11Z" fill="#f2f2f2" stroke="#252525" stroke-width="2"/>
<path d="M30.36 23.94L28.92 24.38C31.36 31.56 35.76 36.6 43.22 38.64C43.44 38.22 43.92 37.56 44.26 37.22C37.02 35.44 32.52 30.54 30.36 23.94ZM26.88 22.2V23.68H40.96V22.2H26.88ZM40.46 22.2V22.52C38.34 30.58 32.54 35.18 25.7 37.26C26.04 37.58 26.54 38.28 26.7 38.68C33.66 36.4 39.7 31.42 42.1 22.64L41.02 22.12L40.76 22.2H40.46Z" fill="#252525"/>
<path d="M4 1H19.4353C20.8866 1 22.1297 2.0388 22.3876 3.46695L28.1654 35.4669C28.4977 37.3074 27.0833 39 25.2131 39H4C2.34315 39 1 37.6569 1 36V4C1 2.34315 2.34315 1 4 1Z" fill="#f2f2f2" stroke="#252525" stroke-width="2"/>
<path d="M16.5417 23.9H10.4617L9.34172 27H7.42172L12.4617 13.14H14.5617L19.5817 27H17.6617L16.5417 23.9ZM16.0217 22.42L13.5017 15.38L10.9817 22.42H16.0217Z" fill="#252525"/>
<rect x="22.6206" y="48.5937" width="12.7822" height="2.03703" rx="1" transform="rotate(-70 22.6206 48.5937)" fill="#252525"/>
</svg>
