<svg width="50" height="50" viewBox="0 0 50 50" fill="none" xmlns="http://www.w3.org/2000/svg">
<g clip-path="url(#clip0_701_742)">
<rect width="50" height="50" fill="#F2F2F2"/>
<path d="M2.4064 18.7535L24.7487 8.59845L47.0709 18.7443L24.5042 28.9015L2.4064 18.7535Z" fill="#F2F2F2" stroke="#252525" stroke-width="2"/>
<path d="M38.9194 20.6271C39.2348 20.8083 39.3872 20.9437 39.458 21.0223C39.39 21.1212 39.2227 21.316 38.8197 21.5918C38.1356 22.0599 37.0591 22.5531 35.6239 22.9997C32.7717 23.8874 28.7998 24.5 24.5 24.5C20.2002 24.5 16.2284 23.8874 13.3761 22.9997C11.9409 22.5531 10.8644 22.0599 10.1803 21.5918C9.77734 21.316 9.61002 21.1212 9.54196 21.0223C9.61284 20.9437 9.76522 20.8083 10.0806 20.6271C10.7486 20.2432 11.8154 19.8613 13.2643 19.5304C16.1369 18.8743 20.1416 18.5 24.5 18.5C28.8584 18.5 32.8631 18.8743 35.7357 19.5304C37.1846 19.8613 38.2514 20.2432 38.9194 20.6271ZM9.48468 21.1005C9.48458 21.1005 9.48517 21.099 9.48675 21.0959C9.48557 21.099 9.48478 21.1005 9.48468 21.1005ZM39.5132 21.0959C39.5148 21.0989 39.5154 21.1005 39.5153 21.1005C39.5152 21.1005 39.5144 21.099 39.5132 21.0959Z" fill="#F2F2F2" stroke="#252525" stroke-width="3"/>
<path d="M39.5 22.5C39.5 22.5813 39.4657 22.7028 39.3146 22.8696C39.1609 23.0393 38.9105 23.2269 38.5465 23.4213C37.8191 23.8096 36.7337 24.1747 35.35 24.4872C32.5908 25.1102 28.7545 25.5 24.5 25.5C20.2455 25.5 16.4092 25.1102 13.65 24.4872C12.2663 24.1747 11.1809 23.8096 10.4535 23.4213C10.0895 23.2269 9.83914 23.0393 9.6854 22.8696C9.53428 22.7028 9.5 22.5813 9.5 22.5C9.5 22.4187 9.53428 22.2972 9.6854 22.1304C9.83914 21.9607 10.0895 21.7731 10.4535 21.5787C11.1809 21.1904 12.2663 20.8253 13.65 20.5128C16.4092 19.8898 20.2455 19.5 24.5 19.5C28.7545 19.5 32.5908 19.8898 35.35 20.5128C36.7337 20.8253 37.8191 21.1904 38.5465 21.5787C38.9105 21.7731 39.1609 21.9607 39.3146 22.1304C39.4657 22.2972 39.5 22.4187 39.5 22.5Z" fill="#F2F2F2" stroke="#F2F2F2"/>
<path d="M12 24H37V35C37 36.1046 36.1046 37 35 37H14C12.8954 37 12 36.1046 12 35V24Z" fill="#F2F2F2" stroke="#252525" stroke-width="2"/>
<rect x="43.5" y="20.5" width="1" height="18" fill="#252525" stroke="#252525"/>
<path d="M41.8034 39.7621L43.6 37.3667C43.8 37.1 44.2 37.1 44.4 37.3667L46.1965 39.7621C46.3185 39.9247 46.3299 40.145 46.2253 40.3193L44.4287 43.3136C44.2345 43.6373 43.7654 43.6373 43.5712 43.3136L41.7747 40.3193C41.6701 40.145 41.6814 39.9247 41.8034 39.7621Z" fill="#F2F2F2" stroke="#252525"/>
<rect x="13" y="22" width="23" height="4" fill="#F2F2F2"/>
</g>
<defs>
<clipPath id="clip0_701_742">
<rect width="50" height="50" fill="white"/>
</clipPath>
</defs>
</svg>
