<svg width="50" height="50" viewBox="0 0 50 50" fill="none" xmlns="http://www.w3.org/2000/svg">
<g clip-path="url(#clip0_126_230)">
<path d="M30.3665 1.99729C30.5397 1.2553 31.2829 0.790375 32.0142 1.00414C35.5628 2.04141 38.843 3.8547 41.6141 6.31924C44.7294 9.0899 47.1024 12.5957 48.5169 16.5175C49.9315 20.4393 50.3429 24.6526 49.7135 28.774C49.0841 32.8953 47.4341 36.7938 44.9135 40.1147C42.3929 43.4356 39.0818 46.0733 35.2815 47.7879C31.4813 49.5025 27.3126 50.2395 23.1548 49.9318C18.9971 49.6241 14.9823 48.2815 11.4759 46.0261C8.35683 44.0199 5.72814 41.3482 3.77472 38.2094C3.37214 37.5625 3.62004 36.7216 4.28814 36.3553V36.3553C4.95624 35.989 5.79115 36.2364 6.19815 36.8805C7.92738 39.6172 10.2365 41.9483 12.9685 43.7055C16.0879 45.712 19.6596 46.9064 23.3585 47.1802C27.0574 47.4539 30.766 46.7983 34.1468 45.2729C37.5276 43.7476 40.4733 41.4009 42.7157 38.4465C44.9581 35.4922 46.4261 32.0239 46.986 28.3574C47.5459 24.6909 47.1799 20.9426 45.9215 17.4537C44.663 13.9647 42.552 10.8458 39.7805 8.38097C37.3533 6.22226 34.487 4.62519 31.386 3.69569C30.6562 3.47692 30.1934 2.73929 30.3665 1.99729V1.99729Z" fill="#252525"/>
<path d="M30.4528 1.62764C30.5783 1.0898 31.1167 0.753532 31.6491 0.900417C35.3378 1.91811 38.7482 3.77038 41.6141 6.31924C44.7294 9.0899 47.1024 12.5957 48.5169 16.5175C49.9315 20.4393 50.3429 24.6526 49.7135 28.774C49.0841 32.8953 47.4341 36.7938 44.9135 40.1147C42.3929 43.4356 39.0818 46.0733 35.2815 47.7879C31.4813 49.5025 27.3126 50.2395 23.1548 49.9318C18.9971 49.6241 14.9823 48.2815 11.4759 46.0261C8.25012 43.9513 5.54886 41.1647 3.57661 37.8856C3.29195 37.4123 3.47103 36.8033 3.9553 36.5378L4.62098 36.1728C5.10526 35.9073 5.71114 36.086 5.99814 36.5579C7.7476 39.4341 10.1298 41.8797 12.9685 43.7055C16.0879 45.712 19.6596 46.9064 23.3585 47.1802C27.0574 47.4539 30.766 46.7983 34.1468 45.2729C37.5276 43.7476 40.4733 41.4009 42.7157 38.4465C44.9581 35.4922 46.4261 32.0239 46.986 28.3574C47.5459 24.6909 47.1799 20.9426 45.9215 17.4537C44.663 13.9647 42.552 10.8458 39.7805 8.38097C37.2584 6.13792 34.2623 4.50126 31.0215 3.58981C30.4899 3.44028 30.1548 2.90479 30.2803 2.36694L30.4528 1.62764Z" fill="#252525"/>
<circle cx="25" cy="25" r="23" fill="#252525"/>
<ellipse cx="16.9333" cy="18.8356" rx="15.4474" ry="22.5039" transform="rotate(45 16.9333 18.8356)" fill="#F2F2F2"/>
</g>
<defs>
<clipPath id="clip0_126_230">
<rect width="50" height="50" fill="white"/>
</clipPath>
</defs>
</svg>
