<svg width="50" height="50" viewBox="0 0 50 50" fill="none" xmlns="http://www.w3.org/2000/svg">
<path d="M24 11H46C47.6569 11 49 12.3431 49 14V46C49 47.6569 47.6569 49 46 49H24C22.3431 49 21 47.6569 21 46V14C21 12.3431 22.3431 11 24 11Z" fill="#252525" stroke="#F2F2F2" stroke-width="2"/>
<path d="M41 22.16L40.72 22.26H26.94V23.7H40.1C39.02 27.08 37.26 29.82 35.02 31.96C32.94 29.76 31.4 27.06 30.4 23.98L28.98 24.4C30.12 27.76 31.7 30.66 33.84 33C31.48 34.92 28.72 36.3 25.78 37.2C26.12 37.5 26.62 38.22 26.76 38.6C29.72 37.62 32.52 36.16 34.94 34.1C37.14 36.14 39.86 37.64 43.18 38.54C43.38 38.14 43.86 37.48 44.2 37.16C40.96 36.36 38.28 34.94 36.12 33.02C38.76 30.42 40.86 27.02 42.04 22.68L41 22.16Z" fill="#F2F2F2"/>
<path d="M4 1H19.4353C20.8866 1 22.1297 2.0388 22.3876 3.46695L28.1654 35.4669C28.4977 37.3074 27.0833 39 25.2131 39H4C2.34315 39 1 37.6569 1 36V4C1 2.34315 2.34315 1 4 1Z" fill="#252525" stroke="#F2F2F2" stroke-width="2"/>
<path d="M16.5417 23.9H10.4617L9.34172 27H7.42172L12.4617 13.14H14.5617L19.5817 27H17.6617L16.5417 23.9ZM16.0217 22.42L13.5017 15.38L10.9817 22.42H16.0217Z" fill="#F2F2F2"/>
<rect x="22.6206" y="48.5937" width="12.7822" height="2.03703" rx="1" transform="rotate(-70 22.6206 48.5937)" fill="#F2F2F2"/>
</svg>
