<svg width="50" height="50" viewBox="0 0 50 50" fill="none" xmlns="http://www.w3.org/2000/svg">
<g clip-path="url(#clip0_701_724)">
<circle cx="24.5" cy="16.5" r="12.5" stroke="#252525" stroke-width="2"/>
<mask id="path-2-inside-1_701_724" fill="white">
<path d="M45 47.5C45 45.7272 44.4698 43.9717 43.4395 42.3338C42.4093 40.6959 40.8993 39.2076 38.9957 37.9541C37.0921 36.7005 34.8322 35.7061 32.345 35.0276C29.8578 34.3492 27.1921 34 24.5 34C21.8079 34 19.1422 34.3492 16.655 35.0276C14.1678 35.7061 11.9079 36.7005 10.0043 37.9541C8.10071 39.2077 6.59069 40.6959 5.56047 42.3338C4.53025 43.9717 4 45.7272 4 47.5L24.5 47.5H45Z"/>
</mask>
<path d="M45 47.5C45 45.7272 44.4698 43.9717 43.4395 42.3338C42.4093 40.6959 40.8993 39.2076 38.9957 37.9541C37.0921 36.7005 34.8322 35.7061 32.345 35.0276C29.8578 34.3492 27.1921 34 24.5 34C21.8079 34 19.1422 34.3492 16.655 35.0276C14.1678 35.7061 11.9079 36.7005 10.0043 37.9541C8.10071 39.2077 6.59069 40.6959 5.56047 42.3338C4.53025 43.9717 4 45.7272 4 47.5L24.5 47.5H45Z" stroke="#252525" stroke-width="4" mask="url(#path-2-inside-1_701_724)"/>
</g>
<defs>
<clipPath id="clip0_701_724">
<rect width="50" height="50" fill="white" transform="translate(50 50) rotate(-180)"/>
</clipPath>
</defs>
</svg>
