<svg width="300" height="300" viewBox="0 0 300 300" fill="none" xmlns="http://www.w3.org/2000/svg">
<mask id="path-1-inside-1_882_2" fill="white">
<rect x="32" y="10" width="237" height="280" rx="11"/>
</mask>
<rect x="32" y="10" width="237" height="280" rx="11" stroke="#6B4200" stroke-width="30" mask="url(#path-1-inside-1_882_2)"/>
<path d="M138 115H84C77.3726 115 72 120.373 72 127C72 133.627 77.3726 139 84 139H138C144.627 139 150 133.627 150 127C150 120.373 144.627 115 138 115Z" fill="#6B4200" fill-opacity="0.7"/>
<path d="M121.923 199H81.0769C76.0639 199 72 204.373 72 211C72 217.627 76.0639 223 81.0769 223H121.923C126.936 223 131 217.627 131 211C131 204.373 126.936 199 121.923 199Z" fill="#6B4200" fill-opacity="0.7"/>
<path d="M157.772 157H84C77.3726 157 72 162.373 72 169C72 175.627 77.3726 181 84 181H157.772C164.4 181 169.772 175.627 169.772 169C169.772 162.373 164.4 157 157.772 157Z" fill="#6B4200"/>
<path d="M216 73H84C77.3726 73 72 78.3726 72 85C72 91.6274 77.3726 97 84 97H216C222.627 97 228 91.6274 228 85C228 78.3726 222.627 73 216 73Z" fill="#6B4200"/>
<rect width="24.7407" height="24.7407" rx="4" transform="matrix(-0.000100092 1 -0.865975 0.500087 225.139 225.184)" fill="#6B4200"/>
<rect width="25.1772" height="25.1772" rx="4" transform="matrix(0.870919 0.491427 -0.870919 0.491427 202.927 211)" fill="#6B4200"/>
<rect width="24.7407" height="24.7407" rx="4" transform="matrix(-0.000100118 -1 0.865975 0.500087 180.714 249.925)" fill="#6B4200"/>
</svg>
