<svg width="201" height="201" viewBox="0 0 201 201" fill="none" xmlns="http://www.w3.org/2000/svg">
<path d="M26.4 149C25.7667 147.833 24.85 146.95 23.65 146.35C22.4833 145.717 21.1 145.4 19.5 145.4C16.7333 145.4 14.5167 146.317 12.85 148.15C11.1833 149.95 10.35 152.367 10.35 155.4C10.35 158.633 11.2167 161.167 12.95 163C14.7167 164.8 17.1333 165.7 20.2 165.7C22.3 165.7 24.0667 165.167 25.5 164.1C26.9667 163.033 28.0333 161.5 28.7 159.5H17.85V153.2H36.45V161.15C35.8167 163.283 34.7333 165.267 33.2 167.1C31.7 168.933 29.7833 170.417 27.45 171.55C25.1167 172.683 22.4833 173.25 19.55 173.25C16.0833 173.25 12.9833 172.5 10.25 171C7.55 169.467 5.43333 167.35 3.9 164.65C2.4 161.95 1.65 158.867 1.65 155.4C1.65 151.933 2.4 148.85 3.9 146.15C5.43333 143.417 7.55 141.3 10.25 139.8C12.95 138.267 16.0333 137.5 19.5 137.5C23.7 137.5 27.2333 138.517 30.1 140.55C33 142.583 34.9167 145.4 35.85 149H26.4ZM49.7359 149.75C50.7359 148.217 51.9859 147.017 53.4859 146.15C54.9859 145.25 56.6526 144.8 58.4859 144.8V153.85H56.1359C54.0026 153.85 52.4026 154.317 51.3359 155.25C50.2693 156.15 49.7359 157.75 49.7359 160.05V173H41.1859V145.1H49.7359V149.75ZM66.8727 142.2C65.3727 142.2 64.1393 141.767 63.1727 140.9C62.2393 140 61.7727 138.9 61.7727 137.6C61.7727 136.267 62.2393 135.167 63.1727 134.3C64.1393 133.4 65.3727 132.95 66.8727 132.95C68.3393 132.95 69.5393 133.4 70.4727 134.3C71.4393 135.167 71.9227 136.267 71.9227 137.6C71.9227 138.9 71.4393 140 70.4727 140.9C69.5393 141.767 68.3393 142.2 66.8727 142.2ZM71.1227 145.1V173H62.5727V145.1H71.1227ZM91.3188 152.2H86.7188V173H78.1688V152.2H75.0688V145.1H78.1688V144.3C78.1688 140.867 79.1521 138.267 81.1188 136.5C83.0854 134.7 85.9688 133.8 89.7688 133.8C90.4021 133.8 90.8688 133.817 91.1688 133.85V141.1C89.5354 141 88.3854 141.233 87.7188 141.8C87.0521 142.367 86.7188 143.383 86.7188 144.85V145.1H91.3188V152.2ZM121.636 158.6C121.636 159.4 121.586 160.233 121.486 161.1H102.136C102.27 162.833 102.82 164.167 103.786 165.1C104.786 166 106.003 166.45 107.436 166.45C109.57 166.45 111.053 165.55 111.886 163.75H120.986C120.52 165.583 119.67 167.233 118.436 168.7C117.236 170.167 115.72 171.317 113.886 172.15C112.053 172.983 110.003 173.4 107.736 173.4C105.003 173.4 102.57 172.817 100.436 171.65C98.303 170.483 96.6363 168.817 95.4363 166.65C94.2363 164.483 93.6363 161.95 93.6363 159.05C93.6363 156.15 94.2197 153.617 95.3863 151.45C96.5863 149.283 98.253 147.617 100.386 146.45C102.52 145.283 104.97 144.7 107.736 144.7C110.436 144.7 112.836 145.267 114.936 146.4C117.036 147.533 118.67 149.15 119.836 151.25C121.036 153.35 121.636 155.8 121.636 158.6ZM112.886 156.35C112.886 154.883 112.386 153.717 111.386 152.85C110.386 151.983 109.136 151.55 107.636 151.55C106.203 151.55 104.986 151.967 103.986 152.8C103.02 153.633 102.42 154.817 102.186 156.35H112.886ZM143.147 144.8C146.414 144.8 149.014 145.867 150.947 148C152.914 150.1 153.897 153 153.897 156.7V173H145.397V157.85C145.397 155.983 144.914 154.533 143.947 153.5C142.98 152.467 141.68 151.95 140.047 151.95C138.414 151.95 137.114 152.467 136.147 153.5C135.18 154.533 134.697 155.983 134.697 157.85V173H126.147V145.1H134.697V148.8C135.564 147.567 136.73 146.6 138.197 145.9C139.664 145.167 141.314 144.8 143.147 144.8ZM164.138 142.2C162.638 142.2 161.405 141.767 160.438 140.9C159.505 140 159.038 138.9 159.038 137.6C159.038 136.267 159.505 135.167 160.438 134.3C161.405 133.4 162.638 132.95 164.138 132.95C165.605 132.95 166.805 133.4 167.738 134.3C168.705 135.167 169.188 136.267 169.188 137.6C169.188 138.9 168.705 140 167.738 140.9C166.805 141.767 165.605 142.2 164.138 142.2ZM168.388 145.1V173H159.838V145.1H168.388ZM191.084 173L185.734 165.25L181.234 173H171.984L181.184 158.75L171.734 145.1H181.334L186.684 152.8L191.184 145.1H200.434L191.084 159.15L200.684 173H191.084Z" fill="#0071DA"/>
<rect width="47.8836" height="47.8836" rx="4" transform="matrix(-0.000102012 0.988759 -0.881964 0.494465 144.687 54.1433)" fill="url(#paint0_linear_83_704)"/>
<rect width="49.2824" height="49.2824" rx="4" transform="matrix(0.877027 0.48044 -0.877027 0.48044 100.905 27)" fill="url(#paint1_linear_83_704)"/>
<rect width="47.8836" height="47.8836" rx="4" transform="matrix(-0.000102012 -0.988759 0.881963 0.494465 57.1183 101.489)" fill="url(#paint2_linear_83_704)"/>
<defs>
<linearGradient id="paint0_linear_83_704" x1="23.9418" y1="0" x2="23.9418" y2="47.8836" gradientUnits="userSpaceOnUse">
<stop offset="1" stop-color="#003C74"/>
</linearGradient>
<linearGradient id="paint1_linear_83_704" x1="24.6412" y1="0" x2="24.6412" y2="49.2824" gradientUnits="userSpaceOnUse">
<stop stop-color="#0071DA"/>
</linearGradient>
<linearGradient id="paint2_linear_83_704" x1="47.8836" y1="0" x2="-3.8147e-06" y2="47.8836" gradientUnits="userSpaceOnUse">
<stop offset="0.227486" stop-color="#0071DA"/>
<stop offset="1" stop-color="#003C74"/>
</linearGradient>
</defs>
</svg>
