<svg width="50" height="50" viewBox="0 0 50 50" fill="none" xmlns="http://www.w3.org/2000/svg">
<rect y="14" width="50" height="4" fill="#FCDD09"/>
<rect y="23" width="50" height="5" fill="#FCDD09"/>
<rect y="28" width="50" height="4" fill="#DA121A"/>
<rect y="32" width="50" height="4" fill="#FCDD09"/>
<path d="M0 36H50L49.8524 38.2606C49.7151 40.3641 47.9689 42 45.8609 42H4.14741C2.04507 42 0.301507 40.3725 0.156883 38.2752L0 36Z" fill="#DA121A"/>
<path d="M0 14H50L49.8524 11.7394C49.7151 9.6359 47.9689 8 45.8609 8H4.14741C2.04507 8 0.301507 9.62747 0.156883 11.7248L0 14Z" fill="#DA121A"/>
<path d="M0.660156 10.0176C1.82278 7.58455 4.29661 6 6.99314 6H43.0832C45.7738 6 48.217 7.57012 49.3347 10.0176V10.0176H0.660156V10.0176Z" fill="#FCDD09"/>
<path d="M0.712117 40.0724C1.88611 42.4757 4.32706 44 7.00183 44H42.9977C45.5593 44 47.9162 42.6009 49.1429 40.3522L49.335 40H0.676758L0.712117 40.0724Z" fill="#FCDD09"/>
<rect y="18" width="50" height="5" fill="#DA121A"/>
</svg>
