<svg width="300" height="300" viewBox="0 0 300 300" fill="none" xmlns="http://www.w3.org/2000/svg">
<rect x="147" y="53" width="6" height="37" fill="#0071DA" fill-opacity="0.7"/>
<rect x="147" y="200" width="6" height="45" fill="#0071DA" fill-opacity="0.7"/>
<rect x="193" y="146" width="6" height="45" transform="rotate(-90 193 146)" fill="#0071DA" fill-opacity="0.7"/>
<rect x="64" y="146" width="6" height="45" transform="rotate(-90 64 146)" fill="#0071DA" fill-opacity="0.7"/>
<rect x="188" y="178.196" width="6" height="45" transform="rotate(-60 188 178.196)" fill="#0071DA" fill-opacity="0.7"/>
<rect x="114.971" y="172" width="6" height="45" transform="rotate(60 114.971 172)" fill="#0071DA" fill-opacity="0.7"/>
<rect x="223.971" y="86" width="6" height="45" transform="rotate(60 223.971 86)" fill="#0071DA" fill-opacity="0.7"/>
<rect x="70" y="90.1962" width="6" height="45" transform="rotate(-60 70 90.1962)" fill="#0071DA" fill-opacity="0.7"/>
<rect width="24.7407" height="24.7407" rx="4" transform="matrix(-0.000100092 1 -0.865975 0.500087 172.139 17.184)" fill="#003C74"/>
<rect width="25.1772" height="25.1772" rx="4" transform="matrix(0.870919 0.491427 -0.870919 0.491427 149.927 3)" fill="#003C74"/>
<rect width="24.7407" height="24.7407" rx="4" transform="matrix(-0.000100118 -1 0.865975 0.500087 127.714 41.9247)" fill="#003C74"/>
<rect width="24.7407" height="24.7407" rx="4" transform="matrix(-0.000100092 1 -0.865975 0.500087 90.1387 62.184)" fill="#003C74"/>
<rect width="25.1772" height="25.1772" rx="4" transform="matrix(0.870919 0.491427 -0.870919 0.491427 67.9275 48)" fill="#003C74"/>
<rect width="24.7407" height="24.7407" rx="4" transform="matrix(-0.000100118 -1 0.865975 0.500087 45.7136 86.9247)" fill="#003C74"/>
<rect width="24.7407" height="24.7407" rx="4" transform="matrix(-0.000100092 1 -0.865975 0.500087 254.139 62.184)" fill="#003C74"/>
<rect width="25.1772" height="25.1772" rx="4" transform="matrix(0.870919 0.491427 -0.870919 0.491427 231.927 48)" fill="#003C74"/>
<rect width="24.7407" height="24.7407" rx="4" transform="matrix(-0.000100118 -1 0.865975 0.500087 209.714 86.9247)" fill="#003C74"/>
<rect width="24.7407" height="24.7407" rx="4" transform="matrix(-0.000100092 1 -0.865975 0.500087 172.139 253.184)" fill="#003C74"/>
<rect width="25.1772" height="25.1772" rx="4" transform="matrix(0.870919 0.491427 -0.870919 0.491427 149.927 239)" fill="#003C74"/>
<rect width="24.7407" height="24.7407" rx="4" transform="matrix(-0.000100118 -1 0.865975 0.500087 127.714 277.925)" fill="#003C74"/>
<rect width="24.7407" height="24.7407" rx="4" transform="matrix(-0.000100092 1 -0.865975 0.500087 276.139 128.184)" fill="#003C74"/>
<rect width="25.1772" height="25.1772" rx="4" transform="matrix(0.870919 0.491427 -0.870919 0.491427 253.927 114)" fill="#003C74"/>
<rect width="24.7407" height="24.7407" rx="4" transform="matrix(-0.000100118 -1 0.865975 0.500087 231.714 152.925)" fill="#003C74"/>
<rect width="24.7407" height="24.7407" rx="4" transform="matrix(-0.000100092 1 -0.865975 0.500087 68.1387 132.184)" fill="#003C74"/>
<rect width="25.1772" height="25.1772" rx="4" transform="matrix(0.870919 0.491427 -0.870919 0.491427 45.9275 118)" fill="#003C74"/>
<rect width="24.7407" height="24.7407" rx="4" transform="matrix(-0.000100118 -1 0.865975 0.500087 23.7136 156.925)" fill="#003C74"/>
<rect width="24.7407" height="24.7407" rx="4" transform="matrix(-0.000100092 1 -0.865975 0.500087 91.1387 202.184)" fill="#003C74"/>
<rect width="25.1772" height="25.1772" rx="4" transform="matrix(0.870919 0.491427 -0.870919 0.491427 68.9275 188)" fill="#003C74"/>
<rect width="24.7407" height="24.7407" rx="4" transform="matrix(-0.000100118 -1 0.865975 0.500087 46.7136 226.925)" fill="#003C74"/>
<rect width="24.7407" height="24.7407" rx="4" transform="matrix(-0.000100092 1 -0.865975 0.500087 253.139 202.184)" fill="#003C74"/>
<rect width="25.1772" height="25.1772" rx="4" transform="matrix(0.870919 0.491427 -0.870919 0.491427 230.927 188)" fill="#003C74"/>
<rect width="24.7407" height="24.7407" rx="4" transform="matrix(-0.000100118 -1 0.865975 0.500087 208.714 226.925)" fill="#003C74"/>
<rect width="55.6667" height="55.6667" rx="4" transform="matrix(-0.000100091 0.999972 -0.866016 0.500073 200.068 117.913)" fill="#003C74"/>
<rect width="56.6505" height="56.6505" rx="4" transform="matrix(0.870935 0.491399 -0.870935 0.491399 150.091 86)" fill="#003C74"/>
<rect width="55.6667" height="55.6667" rx="4" transform="matrix(-0.000100091 -0.999972 0.866016 0.500073 100.107 173.579)" fill="#003C74"/>
</svg>
