<svg width="50" height="50" viewBox="0 0 50 50" fill="none" xmlns="http://www.w3.org/2000/svg">
<g clip-path="url(#clip0_872_575)">
<mask id="path-1-inside-1_872_575" fill="white">
<path d="M50 25C50 38.8071 38.8071 50 25 50C11.1929 50 0 38.8071 0 25C0 11.1929 11.1929 0 25 0C38.8071 0 50 11.1929 50 25ZM5.63575 25C5.63575 35.6946 14.3054 44.3643 25 44.3643C35.6946 44.3643 44.3643 35.6946 44.3643 25C44.3643 14.3054 35.6946 5.63575 25 5.63575C14.3054 5.63575 5.63575 14.3054 5.63575 25Z"/>
</mask>
<path d="M50 25C50 38.8071 38.8071 50 25 50C11.1929 50 0 38.8071 0 25C0 11.1929 11.1929 0 25 0C38.8071 0 50 11.1929 50 25ZM5.63575 25C5.63575 35.6946 14.3054 44.3643 25 44.3643C35.6946 44.3643 44.3643 35.6946 44.3643 25C44.3643 14.3054 35.6946 5.63575 25 5.63575C14.3054 5.63575 5.63575 14.3054 5.63575 25Z" stroke="#6E6E73" stroke-width="6" mask="url(#path-1-inside-1_872_575)"/>
<rect x="21.8091" y="7" width="6" height="21" rx="2" fill="#6E6E73"/>
<rect x="21" y="27.7076" width="6" height="21.2334" rx="3" transform="rotate(-70 21 27.7076)" fill="#6E6E73"/>
</g>
<defs>
<clipPath id="clip0_872_575">
<rect width="50" height="50" fill="white" transform="translate(50 50) rotate(-180)"/>
</clipPath>
</defs>
</svg>
