<svg width="50" height="50" viewBox="0 0 50 50" fill="none" xmlns="http://www.w3.org/2000/svg">
<path d="M36 24.5C36 30.8513 30.8513 36 24.5 36C18.1487 36 13 30.8513 13 24.5C13 18.1487 18.1487 13 24.5 13C30.8513 13 36 18.1487 36 24.5Z" fill="#252525" stroke="#252525" stroke-width="2"/>
<path d="M34.4952 30.1882C33.3134 31.8673 32.4176 33.3701 31.6619 34.6689C31.5571 34.849 31.4555 35.0242 31.3567 35.1946C30.6943 36.3372 30.1554 37.2666 29.5948 38.0363C28.9648 38.9013 28.3568 39.4913 27.6148 39.8797C26.8723 40.2683 25.909 40.5 24.5 40.5C23.091 40.5 22.1277 40.2683 21.3852 39.8797C20.6432 39.4913 20.0352 38.9013 19.4052 38.0363C18.8446 37.2666 18.3057 36.3372 17.6433 35.1946C17.5445 35.0242 17.4429 34.849 17.3381 34.6689C16.5824 33.3701 15.6866 31.8673 14.5048 30.1882C14.6695 24.8096 19.0815 20.5 24.5 20.5C29.9185 20.5 34.3305 24.8096 34.4952 30.1882Z" fill="#F2F2F2" stroke="#252525" stroke-width="2"/>
<path d="M19.5 39.5H29.5V40C29.5 41.3807 28.3807 42.5 27 42.5H22C20.6193 42.5 19.5 41.3807 19.5 40V39.5Z" fill="#F2F2F2" stroke="#252525"/>
<path d="M27.45 44.5C27.2184 45.6411 26.2095 46.5 25 46.5H24C22.7905 46.5 21.7816 45.6411 21.55 44.5H27.45Z" fill="#F2F2F2" stroke="#252525"/>
<rect x="41" y="25" width="5" height="1" rx="0.5" fill="#252525"/>
<rect x="24" y="10" width="5" height="1" rx="0.5" transform="rotate(-90 24 10)" fill="#252525"/>
<rect x="3" y="25" width="5" height="1" rx="0.5" fill="#252525"/>
<rect x="35.8137" y="13.4792" width="5" height="1" rx="0.5" transform="rotate(-45 35.8137 13.4792)" fill="#252525"/>
<rect x="8.9436" y="40.3492" width="5" height="1" rx="0.5" transform="rotate(-45 8.9436 40.3492)" fill="#252525"/>
<rect x="36.5209" y="36.8137" width="5" height="1" rx="0.5" transform="rotate(45 36.5209 36.8137)" fill="#252525"/>
<rect x="9.65076" y="9.94366" width="5" height="1" rx="0.5" transform="rotate(45 9.65076 9.94366)" fill="#252525"/>
<circle cx="24.5" cy="24.5" r="10.5" fill="#F2F2F2"/>
</svg>
