<svg width="50" height="50" viewBox="0 0 50 50" fill="none" xmlns="http://www.w3.org/2000/svg">
<g clip-path="url(#clip0_701_695)">
<rect x="31.2843" y="14.6271" width="14.6" height="6.8" rx="3.4" transform="rotate(-45 31.2843 14.6271)" stroke="#252525"/>
<path d="M5.82843 31.5976L25.3872 12.0389C25.7474 11.6786 26.2316 11.4694 26.7408 11.454L37.533 11.127C38.6847 11.0921 39.6276 12.035 39.5927 13.1866L39.2657 23.9788C39.2502 24.4881 39.041 24.9722 38.6808 25.3325L19.122 44.8912C18.341 45.6723 17.0747 45.6723 16.2936 44.8912L5.82843 34.4261C5.04738 33.645 5.04738 32.3787 5.82843 31.5976Z" fill="#F2F2F2" stroke="#252525" stroke-width="2"/>
<path d="M25.6802 28.7956C26.0347 29.1501 26.2873 29.5763 26.4382 30.0741C26.5815 30.5644 26.5853 31.0886 26.4495 31.6467C26.3137 32.2048 26.0083 32.7441 25.5331 33.2646L26.4382 34.1697L25.9404 34.6675L25.024 33.7511C24.2923 34.362 23.5306 34.6863 22.7386 34.724C21.9391 34.7542 21.2414 34.5015 20.6456 33.966L21.4941 33.1175C21.8637 33.4267 22.3087 33.6002 22.8291 33.6379C23.3495 33.6605 23.8624 33.4795 24.3678 33.0949L21.2339 29.961C20.5928 30.3305 20.0497 30.6021 19.6047 30.7755C19.1672 30.9415 18.7034 30.9905 18.2131 30.9226C17.7153 30.8472 17.2288 30.5719 16.7536 30.0967C16.1578 29.5009 15.8749 28.8032 15.9051 28.0037C15.9277 27.1966 16.2785 26.4235 16.9573 25.6844L16.0069 24.734L16.5047 24.2362L17.4664 25.1979C18.1528 24.6322 18.858 24.3343 19.5821 24.3041C20.3062 24.2739 20.9623 24.4851 21.5507 24.9377L20.7134 25.7749C20.3891 25.5411 19.9894 25.4204 19.5142 25.4128C19.0466 25.3978 18.5902 25.5524 18.1452 25.8767L21.166 28.8975C21.7845 28.5354 22.32 28.2714 22.7725 28.1055C23.2251 27.9245 23.7003 27.8717 24.1981 27.9471C24.6959 28.0225 25.1899 28.3054 25.6802 28.7956ZM17.523 29.2595C17.9454 29.6819 18.3941 29.8742 18.8693 29.8365C19.3445 29.7837 19.8951 29.5876 20.5211 29.2482L17.6135 26.3406C17.1836 26.8157 16.9498 27.3136 16.912 27.834C16.8819 28.3469 17.0855 28.822 17.523 29.2595ZM24.8882 32.6197C25.3408 32.1068 25.5633 31.5826 25.5557 31.0471C25.5406 30.504 25.3294 30.0288 24.9221 29.6215C24.4922 29.1916 24.0359 28.9993 23.5532 29.0446C23.078 29.0823 22.5199 29.2708 21.8788 29.6102L24.8882 32.6197Z" fill="#252525"/>
<circle cx="33.3349" cy="17.3848" r="3.9" transform="rotate(-45 33.3349 17.3848)" fill="#252525"/>
</g>
<defs>
<clipPath id="clip0_701_695">
<rect width="50" height="50" fill="white"/>
</clipPath>
</defs>
</svg>
