<svg width="50" height="50" viewBox="0 0 50 50" fill="none" xmlns="http://www.w3.org/2000/svg">
<g clip-path="url(#clip0_701_719)">
<path d="M30.3665 1.99729C30.5397 1.2553 31.2829 0.790375 32.0142 1.00414C35.5628 2.04141 38.843 3.8547 41.6141 6.31924C44.7294 9.0899 47.1024 12.5957 48.5169 16.5175C49.9315 20.4393 50.3429 24.6526 49.7135 28.774C49.0841 32.8953 47.4341 36.7938 44.9135 40.1147C42.3929 43.4356 39.0818 46.0733 35.2815 47.7879C31.4813 49.5025 27.3126 50.2395 23.1548 49.9318C18.9971 49.6241 14.9823 48.2815 11.4759 46.0261C8.35683 44.0199 5.72814 41.3482 3.77472 38.2094C3.37214 37.5625 3.62004 36.7216 4.28814 36.3553V36.3553C4.95624 35.989 5.79115 36.2364 6.19815 36.8805C7.92738 39.6172 10.2365 41.9483 12.9685 43.7055C16.0879 45.712 19.6596 46.9064 23.3585 47.1802C27.0574 47.4539 30.766 46.7983 34.1468 45.2729C37.5276 43.7476 40.4733 41.4009 42.7157 38.4465C44.9581 35.4922 46.4261 32.0239 46.986 28.3574C47.5459 24.6909 47.1799 20.9426 45.9215 17.4537C44.663 13.9647 42.552 10.8458 39.7805 8.38097C37.3533 6.22226 34.487 4.62519 31.386 3.69569C30.6562 3.47692 30.1934 2.73929 30.3665 1.99729V1.99729Z" fill="#F2F2F2"/>
<mask id="path-2-inside-1_701_719" fill="white">
<path d="M30.3195 0.942674C30.5471 0.760295 30.8462 0.69142 31.129 0.762923C35.0225 1.74749 38.624 3.65629 41.6266 6.33027C44.7442 9.10671 47.1169 12.6197 48.5282 16.5486C49.9395 20.4776 50.3444 24.6974 49.706 28.8231C49.0676 32.9487 47.4062 36.8488 44.8734 40.1674C42.3406 43.486 39.0171 46.1176 35.2061 47.8219C31.3951 49.5262 27.2179 50.249 23.0558 49.9243C18.8937 49.5996 14.8792 48.2379 11.3786 45.9632C8.1442 43.8616 5.44366 41.0425 3.48391 37.7301C3.21255 37.2715 3.37313 36.6847 3.82858 36.408V36.408C4.22251 36.1686 4.72757 36.2283 5.0489 36.5588C6.79006 38.3497 10.0972 41.8401 12.8819 43.6496C15.9962 45.6732 19.5677 46.8847 23.2704 47.1735C26.9732 47.4623 30.6893 46.8193 34.0797 45.3031C37.4701 43.7869 40.4268 41.4458 42.6801 38.4934C44.9333 35.5411 46.4114 32.0714 46.9793 28.4011C47.5473 24.7308 47.187 20.9767 45.9315 17.4814C44.676 13.9861 42.5651 10.8608 39.7916 8.39077C37.2984 6.17051 35.0118 4.39405 30.5803 2.60491C29.8927 2.32733 29.7409 1.40632 30.3195 0.942674V0.942674Z"/>
</mask>
<path d="M30.3195 0.942674C30.5471 0.760295 30.8462 0.69142 31.129 0.762923C35.0225 1.74749 38.624 3.65629 41.6266 6.33027C44.7442 9.10671 47.1169 12.6197 48.5282 16.5486C49.9395 20.4776 50.3444 24.6974 49.706 28.8231C49.0676 32.9487 47.4062 36.8488 44.8734 40.1674C42.3406 43.486 39.0171 46.1176 35.2061 47.8219C31.3951 49.5262 27.2179 50.249 23.0558 49.9243C18.8937 49.5996 14.8792 48.2379 11.3786 45.9632C8.1442 43.8616 5.44366 41.0425 3.48391 37.7301C3.21255 37.2715 3.37313 36.6847 3.82858 36.408V36.408C4.22251 36.1686 4.72757 36.2283 5.0489 36.5588C6.79006 38.3497 10.0972 41.8401 12.8819 43.6496C15.9962 45.6732 19.5677 46.8847 23.2704 47.1735C26.9732 47.4623 30.6893 46.8193 34.0797 45.3031C37.4701 43.7869 40.4268 41.4458 42.6801 38.4934C44.9333 35.5411 46.4114 32.0714 46.9793 28.4011C47.5473 24.7308 47.187 20.9767 45.9315 17.4814C44.676 13.9861 42.5651 10.8608 39.7916 8.39077C37.2984 6.17051 35.0118 4.39405 30.5803 2.60491C29.8927 2.32733 29.7409 1.40632 30.3195 0.942674V0.942674Z" fill="#F2F2F2"/>
<path d="M41.6266 6.33027L39.6314 8.57064L41.6266 6.33027ZM30.5803 2.60491L29.4572 5.38675L30.5803 2.60491ZM5.0489 36.5588L7.19986 34.4675L5.0489 36.5588ZM3.48391 37.7301L0.901971 39.2577L3.48391 37.7301ZM31.129 0.762923L30.3935 3.67138L31.129 0.762923ZM30.3935 3.67138C33.8198 4.53779 36.9891 6.21754 39.6314 8.57064L43.6217 4.0899C40.2588 1.09504 36.2252 -1.04282 31.8644 -2.14553L30.3935 3.67138ZM39.6314 8.57064C42.3749 11.0139 44.4629 14.1053 45.7048 17.5628L51.3516 15.5345C49.771 11.1341 47.1135 7.19952 43.6217 4.0899L39.6314 8.57064ZM45.7048 17.5628C46.9468 21.0203 47.3031 24.7337 46.7413 28.3643L52.6707 29.2818C53.3857 24.6611 52.9322 19.9349 51.3516 15.5345L45.7048 17.5628ZM46.7413 28.3643C46.1795 31.9949 44.7175 35.4269 42.4886 38.3473L47.2582 41.9875C50.0949 38.2706 51.9557 33.9025 52.6707 29.2818L46.7413 28.3643ZM42.4886 38.3473C40.2597 41.2677 37.335 43.5835 33.9813 45.0833L36.4308 50.5605C40.6991 48.6517 44.4215 45.7044 47.2582 41.9875L42.4886 38.3473ZM33.9813 45.0833C30.6277 46.583 26.9518 47.2191 23.2891 46.9334L22.8225 52.9152C27.4841 53.2788 32.1625 52.4693 36.4308 50.5605L33.9813 45.0833ZM23.2891 46.9334C19.6265 46.6477 16.0937 45.4493 13.0132 43.4476L9.74401 48.4788C13.6647 51.0264 18.161 52.5516 22.8225 52.9152L23.2891 46.9334ZM13.0132 43.4476C10.1669 41.5982 7.79043 39.1174 6.06586 36.2025L0.901971 39.2577C3.09689 42.9676 6.12149 46.125 9.74401 48.4788L13.0132 43.4476ZM2.89793 38.65C4.52899 40.3277 8.11066 44.127 11.2474 46.1652L14.5165 41.134C12.0838 39.5532 9.05112 36.3717 7.19986 34.4675L2.89793 38.65ZM11.2474 46.1652C14.7817 48.4617 18.8349 49.8366 23.0371 50.1644L23.5037 44.1826C20.3004 43.9327 17.2107 42.8846 14.5165 41.134L11.2474 46.1652ZM23.0371 50.1644C27.2393 50.4922 31.4567 49.7624 35.3044 48.0417L32.855 42.5645C29.9219 43.8762 26.707 44.4325 23.5037 44.1826L23.0371 50.1644ZM35.3044 48.0417C39.1521 46.321 42.5077 43.6641 45.0649 40.3135L40.2953 36.6734C38.3459 39.2275 35.788 41.2528 32.855 42.5645L35.3044 48.0417ZM45.0649 40.3135C47.6221 36.9629 49.2995 33.0253 49.944 28.8599L44.0146 27.9424C43.5233 31.1176 42.2446 34.1192 40.2953 36.6734L45.0649 40.3135ZM49.944 28.8599C50.5886 24.6945 50.1798 20.434 48.7549 16.4672L43.1081 18.4956C44.1943 21.5194 44.5059 24.7671 44.0146 27.9424L49.944 28.8599ZM48.7549 16.4672C47.33 12.5004 44.9344 8.9536 41.7867 6.1504L37.7964 10.6311C40.1958 12.768 42.022 15.4717 43.1081 18.4956L48.7549 16.4672ZM41.7867 6.1504C39.1214 3.77675 36.5455 1.77799 31.7034 -0.176927L29.4572 5.38675C33.4781 7.01012 35.4755 8.56427 37.7964 10.6311L41.7867 6.1504ZM31.7034 -0.176927C33.0506 0.36696 33.4833 2.25189 32.1955 3.28381L28.4436 -1.39846C25.9985 0.560754 26.7349 4.2877 29.4572 5.38675L31.7034 -0.176927ZM5.38643 38.9718C4.60846 39.4445 3.57052 39.3418 2.89793 38.65L7.19986 34.4675C5.88462 33.1147 3.83655 32.8927 2.27072 33.8442L5.38643 38.9718ZM6.06586 36.2025C6.66951 37.2228 6.26992 38.4349 5.38643 38.9718L2.27072 33.8442C0.476344 34.9345 -0.244419 37.3201 0.901971 39.2577L6.06586 36.2025ZM31.8644 -2.14553C30.6415 -2.45478 29.3811 -2.14969 28.4436 -1.39846L32.1955 3.28381C31.7131 3.67028 31.0509 3.83762 30.3935 3.67138L31.8644 -2.14553Z" fill="#252525" mask="url(#path-2-inside-1_701_719)"/>
<circle cx="25" cy="25" r="23" fill="#F2F2F2"/>
<mask id="path-5-inside-2_701_719" fill="white">
<path d="M3.5061 37.8033C7.11619 39.8 12.0741 39.8007 17.289 37.8052C22.504 35.8096 27.5488 31.9814 31.3138 27.1626C35.0788 22.3438 37.2554 16.9291 37.365 12.1098C37.4745 7.29054 35.5079 3.46135 31.8978 1.46465L30.5 2.5C33.4886 3.51138 35.3591 8.61108 35.2613 12.9148C35.1635 17.2185 33.2198 22.0539 29.8576 26.3571C26.4954 30.6604 21.9902 34.0791 17.3332 35.8612C12.6761 37.6432 8.22387 38.2831 5 36.5L3.5061 37.8033Z"/>
</mask>
<path d="M3.5061 37.8033C7.11619 39.8 12.0741 39.8007 17.289 37.8052C22.504 35.8096 27.5488 31.9814 31.3138 27.1626C35.0788 22.3438 37.2554 16.9291 37.365 12.1098C37.4745 7.29054 35.5079 3.46135 31.8978 1.46465L30.5 2.5C33.4886 3.51138 35.3591 8.61108 35.2613 12.9148C35.1635 17.2185 33.2198 22.0539 29.8576 26.3571C26.4954 30.6604 21.9902 34.0791 17.3332 35.8612C12.6761 37.6432 8.22387 38.2831 5 36.5L3.5061 37.8033Z" fill="#F2F2F2"/>
<path d="M3.5061 37.8033L1.53387 35.5427L-1.69164 38.3568L2.05412 40.4286L3.5061 37.8033ZM31.8978 1.46465L33.3498 -1.16056L31.662 -2.09405L30.1121 -0.946054L31.8978 1.46465ZM30.5 2.5L28.7144 0.0892953L24.1055 3.50316L29.5383 5.34169L30.5 2.5ZM5 36.5L6.45198 33.8748L4.6121 32.8572L3.02776 34.2394L5 36.5ZM2.05412 40.4286C6.68721 42.9911 12.6286 42.8006 18.3612 40.607L16.2169 35.0033C11.5195 36.8008 7.54517 36.609 4.95808 35.1781L2.05412 40.4286ZM18.3612 40.607C24.1334 38.3983 29.61 34.216 33.6778 29.0096L28.9498 25.3156C25.4876 29.7468 20.8746 33.221 16.2169 35.0033L18.3612 40.607ZM33.6778 29.0096C37.7327 23.8197 40.2364 17.7987 40.3642 12.178L34.3657 12.0417C34.2744 16.0596 32.4248 20.8678 28.9498 25.3156L33.6778 29.0096ZM40.3642 12.178C40.4939 6.47103 38.1211 1.4784 33.3498 -1.16056L30.4458 4.08987C32.8947 5.44431 34.4551 8.11006 34.3657 12.0417L40.3642 12.178ZM30.1121 -0.946054L28.7144 0.0892953L32.2856 4.9107L33.6834 3.87536L30.1121 -0.946054ZM29.5383 5.34169C29.8201 5.43704 30.5701 5.99229 31.2795 7.65194C31.9349 9.18504 32.3016 11.1093 32.2621 12.8466L38.2606 12.9829C38.3189 10.4166 37.7992 7.63912 36.7966 5.2936C35.8481 3.07463 34.1685 0.574336 31.4617 -0.341693L29.5383 5.34169ZM32.2621 12.8466C32.1825 16.3489 30.5658 20.5779 27.4936 24.5101L32.2216 28.2042C35.8737 23.5298 38.1446 18.0881 38.2606 12.9829L32.2621 12.8466ZM27.4936 24.5101C24.4342 28.4258 20.3608 31.4905 16.261 33.0593L18.4053 38.663C23.6196 36.6678 28.5566 32.895 32.2216 28.2042L27.4936 24.5101ZM16.261 33.0593C11.7371 34.7904 8.42862 34.968 6.45198 33.8748L3.54802 39.1252C8.01912 41.5981 13.6152 40.496 18.4053 38.663L16.261 33.0593ZM3.02776 34.2394L1.53387 35.5427L5.47834 40.0639L6.97223 38.7606L3.02776 34.2394Z" fill="#252525" mask="url(#path-5-inside-2_701_719)"/>
</g>
<defs>
<clipPath id="clip0_701_719">
<rect width="50" height="50" fill="white"/>
</clipPath>
</defs>
</svg>
