<svg width="50" height="50" viewBox="0 0 50 50" fill="none" xmlns="http://www.w3.org/2000/svg">
<g clip-path="url(#clip0_124_153)">
<path d="M1.98907 19.6622C1.21051 19.3047 1.21267 18.1976 1.99262 17.8431L24.335 7.68807C24.5979 7.56857 24.8996 7.56857 25.1625 7.68807L47.4847 17.8339C48.2679 18.1899 48.2659 19.3031 47.4814 19.6562L24.9146 29.8134C24.6512 29.932 24.3493 29.9308 24.0868 29.8103L1.98907 19.6622Z" fill="#252525"/>
<ellipse cx="24.5" cy="22" rx="16.5" ry="4" fill="#F2F2F2"/>
<path d="M38 23C36.4985 22.4668 34.6142 21.7744 32.2646 21.4706C29.9149 21.1668 27.2968 21.0054 24.634 21.0001C21.9711 20.9949 19.3426 21.146 16.9729 21.4405C14.6032 21.735 12.537 22.4728 11 23L24.5 25L38 23Z" fill="#252525"/>
<path d="M11 23H38V35C38 36.6569 36.6569 38 35 38H14C12.3431 38 11 36.6569 11 35V23Z" fill="#252525"/>
<rect x="43" y="20" width="2" height="19" fill="#252525"/>
<path d="M41.3459 40.5766C41.1367 40.228 41.1594 39.7874 41.4034 39.4621L43.2 37.0667C43.6 36.5333 44.4 36.5333 44.8 37.0667L46.5965 39.4621C46.8405 39.7874 46.8632 40.2279 46.654 40.5766L44.8575 43.5708C44.4691 44.2182 43.5309 44.2182 43.1425 43.5709L41.3459 40.5766Z" fill="#252525"/>
</g>
<defs>
<clipPath id="clip0_124_153">
<rect width="50" height="50" fill="white"/>
</clipPath>
</defs>
</svg>
