<svg width="50" height="50" viewBox="0 0 50 50" fill="none" xmlns="http://www.w3.org/2000/svg">
<g clip-path="url(#clip0_124_179)">
<rect x="1" y="26.7101" width="5" height="1" rx="0.5" transform="rotate(-20 1 26.7101)" fill="#252525"/>
<rect x="16" y="39" width="5" height="1" rx="0.5" transform="rotate(-90 16 39)" fill="#252525"/>
<rect x="8.21399" y="11.473" width="5" height="1" rx="0.5" transform="rotate(-130 8.21399 11.473)" fill="#252525"/>
<rect x="28.98" y="7.64282" width="5" height="1" rx="0.5" transform="rotate(130 28.98 7.64282)" fill="#252525"/>
<path d="M16.0489 9.92705C16.3483 9.00574 17.6517 9.00574 17.9511 9.92705L20.1432 16.6738C20.2771 17.0858 20.661 17.3647 21.0943 17.3647H28.1882C29.1569 17.3647 29.5597 18.6044 28.776 19.1738L23.0369 23.3435C22.6864 23.5981 22.5397 24.0495 22.6736 24.4615L24.8657 31.2082C25.1651 32.1295 24.1106 32.8956 23.3269 32.3262L17.5878 28.1565C17.2373 27.9019 16.7627 27.9019 16.4122 28.1565L10.6731 32.3262C9.88941 32.8956 8.83493 32.1295 9.13428 31.2082L11.3264 24.4615C11.4603 24.0495 11.3136 23.5981 10.9631 23.3435L5.22405 19.1738C4.44034 18.6044 4.84311 17.3647 5.81184 17.3647H12.9057C13.339 17.3647 13.7229 17.0858 13.8568 16.6738L16.0489 9.92705Z" fill="#252525"/>
<mask id="path-6-inside-1_124_179" fill="white">
<path d="M11.1558 23.5608C10.6374 23.0279 10.8679 22.1632 11.6112 22.1506C13.1323 22.1248 15.0209 22.5593 17.132 23.4328C20.0615 24.6451 23.2558 26.635 26.2196 29.0943C29.1834 31.5535 31.7512 34.3446 33.5249 37.0348C34.8035 38.9743 35.618 40.7832 35.9171 42.3199C36.0599 43.054 35.2668 43.4683 34.6435 43.0551V43.0551C34.3447 42.8571 34.1847 42.5117 34.1677 42.1537C34.0968 40.6595 33.3425 38.7713 31.986 36.7138C30.4472 34.3799 28.2195 31.9584 25.6482 29.8249C23.0769 27.6914 20.3057 25.9649 17.7641 24.9133C15.5507 23.9974 13.6192 23.6378 12.1917 23.8671C11.8178 23.9272 11.4199 23.8323 11.1558 23.5608V23.5608Z"/>
</mask>
<path d="M11.1558 23.5608C10.6374 23.0279 10.8679 22.1632 11.6112 22.1506C13.1323 22.1248 15.0209 22.5593 17.132 23.4328C20.0615 24.6451 23.2558 26.635 26.2196 29.0943C29.1834 31.5535 31.7512 34.3446 33.5249 37.0348C34.8035 38.9743 35.618 40.7832 35.9171 42.3199C36.0599 43.054 35.2668 43.4683 34.6435 43.0551V43.0551C34.3447 42.8571 34.1847 42.5117 34.1677 42.1537C34.0968 40.6595 33.3425 38.7713 31.986 36.7138C30.4472 34.3799 28.2195 31.9584 25.6482 29.8249C23.0769 27.6914 20.3057 25.9649 17.7641 24.9133C15.5507 23.9974 13.6192 23.6378 12.1917 23.8671C11.8178 23.9272 11.4199 23.8323 11.1558 23.5608V23.5608Z" stroke="#252525" stroke-width="2" mask="url(#path-6-inside-1_124_179)"/>
<mask id="path-7-inside-2_124_179" fill="white">
<path d="M17.9582 21.8559C17.2888 21.5324 17.2096 20.6411 17.9039 20.375C19.3243 19.8305 21.2477 19.5928 23.5302 19.6917C26.6977 19.8288 30.3799 20.6063 34.0061 21.9035C37.6323 23.2007 40.9998 24.9453 43.5866 26.8666C45.4515 28.2518 46.8355 29.6731 47.6422 31.0149C48.0275 31.6558 47.4239 32.3164 46.6968 32.1413V32.1413C46.3484 32.0574 46.0799 31.7875 45.9415 31.4569C45.3638 30.0771 44.0092 28.5608 42.0308 27.0913C39.7865 25.4244 36.865 23.9109 33.7191 22.7855C30.5731 21.6601 27.3785 20.9856 24.6306 20.8666C22.2374 20.763 20.2994 21.0857 19.0364 21.7894C18.7056 21.9738 18.2992 22.0207 17.9582 21.8559V21.8559Z"/>
</mask>
<path d="M17.9582 21.8559C17.2888 21.5324 17.2096 20.6411 17.9039 20.375C19.3243 19.8305 21.2477 19.5928 23.5302 19.6917C26.6977 19.8288 30.3799 20.6063 34.0061 21.9035C37.6323 23.2007 40.9998 24.9453 43.5866 26.8666C45.4515 28.2518 46.8355 29.6731 47.6422 31.0149C48.0275 31.6558 47.4239 32.3164 46.6968 32.1413V32.1413C46.3484 32.0574 46.0799 31.7875 45.9415 31.4569C45.3638 30.0771 44.0092 28.5608 42.0308 27.0913C39.7865 25.4244 36.865 23.9109 33.7191 22.7855C30.5731 21.6601 27.3785 20.9856 24.6306 20.8666C22.2374 20.763 20.2994 21.0857 19.0364 21.7894C18.7056 21.9738 18.2992 22.0207 17.9582 21.8559V21.8559Z" stroke="#252525" stroke-width="2" mask="url(#path-7-inside-2_124_179)"/>
<mask id="path-8-inside-3_124_179" fill="white">
<path d="M16.0928 23.7549C15.5104 23.3349 15.5956 22.4813 16.2995 22.3393C17.8003 22.0366 19.7557 22.1329 22.0136 22.6326C25.1092 23.3177 28.6005 24.7228 31.9463 26.63C35.2921 28.5372 38.3056 30.84 40.5194 33.1814C42.1402 34.8955 43.2662 36.5603 43.8188 38.0388C44.0692 38.7088 43.3886 39.2305 42.7327 38.9448V38.9448C42.4184 38.8079 42.2101 38.5094 42.1366 38.1745C41.8127 36.6997 40.732 34.9489 39.0165 33.1346C37.0831 31.0898 34.4514 29.0787 31.5294 27.4131C28.6074 25.7475 25.5584 24.5205 22.855 23.9222C20.4871 23.3981 18.5003 23.3821 17.1243 23.8674C16.7794 23.9891 16.3895 23.9688 16.0928 23.7549V23.7549Z"/>
</mask>
<path d="M16.0928 23.7549C15.5104 23.3349 15.5956 22.4813 16.2995 22.3393C17.8003 22.0366 19.7557 22.1329 22.0136 22.6326C25.1092 23.3177 28.6005 24.7228 31.9463 26.63C35.2921 28.5372 38.3056 30.84 40.5194 33.1814C42.1402 34.8955 43.2662 36.5603 43.8188 38.0388C44.0692 38.7088 43.3886 39.2305 42.7327 38.9448V38.9448C42.4184 38.8079 42.2101 38.5094 42.1366 38.1745C41.8127 36.6997 40.732 34.9489 39.0165 33.1346C37.0831 31.0898 34.4514 29.0787 31.5294 27.4131C28.6074 25.7475 25.5584 24.5205 22.855 23.9222C20.4871 23.3981 18.5003 23.3821 17.1243 23.8674C16.7794 23.9891 16.3895 23.9688 16.0928 23.7549V23.7549Z" stroke="#252525" stroke-width="2" mask="url(#path-8-inside-3_124_179)"/>
</g>
<defs>
<clipPath id="clip0_124_179">
<rect width="50" height="50" fill="white"/>
</clipPath>
</defs>
</svg>
