<svg width="50" height="50" viewBox="0 0 50 50" fill="none" xmlns="http://www.w3.org/2000/svg">
<circle cx="24.5" cy="25.5" r="16.5" stroke="#252525" stroke-width="2"/>
<path d="M24 4H26C27.1046 4 28 4.89543 28 6V9H22V6C22 4.89543 22.8954 4 24 4Z" fill="#252525" stroke="#252525" stroke-width="2"/>
<path d="M26 47H24C22.8954 47 22 46.1046 22 45V42H28V45C28 46.1046 27.1046 47 26 47Z" fill="#252525" stroke="#252525" stroke-width="2"/>
<path d="M7.82843 11.2426L9.24264 9.82843C10.0237 9.04738 11.29 9.04738 12.0711 9.82843L14.1924 11.9498L9.94975 16.1924L7.82843 14.0711C7.04738 13.29 7.04738 12.0237 7.82843 11.2426Z" fill="#252525" stroke="#252525" stroke-width="2"/>
<path d="M40.6483 40.234L39.234 41.6483C38.453 42.4293 37.1867 42.4293 36.4056 41.6483L34.2843 39.5269L38.5269 35.2843L40.6483 37.4056C41.4293 38.1867 41.4293 39.453 40.6483 40.234Z" fill="#252525" stroke="#252525" stroke-width="2"/>
<path d="M39.234 9.82843L40.6483 11.2426C41.4293 12.0237 41.4293 13.29 40.6483 14.0711L38.5269 16.1924L34.2843 11.9497L36.4056 9.82843C37.1867 9.04738 38.453 9.04738 39.234 9.82843Z" fill="#252525" stroke="#252525" stroke-width="2"/>
<path d="M10.2426 41.6483L8.82843 40.234C8.04738 39.453 8.04738 38.1867 8.82843 37.4056L10.9498 35.2843L15.1924 39.5269L13.0711 41.6483C12.29 42.4293 11.0237 42.4293 10.2426 41.6483Z" fill="#252525" stroke="#252525" stroke-width="2"/>
<path d="M3 26V24C3 22.8954 3.89543 22 5 22H8V28H5C3.89543 28 3 27.1046 3 26Z" fill="#252525" stroke="#252525" stroke-width="2"/>
<path d="M46 24V26C46 27.1046 45.1046 28 44 28H41V22H44C45.1046 22 46 22.8954 46 24Z" fill="#252525" stroke="#252525" stroke-width="2"/>
</svg>
