<svg width="50" height="50" viewBox="0 0 50 50" fill="none" xmlns="http://www.w3.org/2000/svg">
<g clip-path="url(#clip0_914_28)">
<path d="M24.7183 10.8C27.4383 10.8 29.6116 11.5467 31.2383 13.04C32.8916 14.5333 33.7183 16.5733 33.7183 19.16C33.7183 21.8533 32.8649 23.88 31.1583 25.24C29.4516 26.6 27.1849 27.28 24.3583 27.28L24.1983 30.44H20.2383L20.0383 24.16H21.3583C23.9449 24.16 25.9183 23.8133 27.2783 23.12C28.6649 22.4267 29.3583 21.1067 29.3583 19.16C29.3583 17.7467 28.9449 16.64 28.1183 15.84C27.3183 15.04 26.1983 14.64 24.7583 14.64C23.3183 14.64 22.1849 15.0267 21.3583 15.8C20.5316 16.5733 20.1183 17.6533 20.1183 19.04H15.8383C15.8383 17.44 16.1983 16.0133 16.9183 14.76C17.6383 13.5067 18.6649 12.5333 19.9983 11.84C21.3583 11.1467 22.9316 10.8 24.7183 10.8ZM22.1583 39.28C21.3316 39.28 20.6383 39 20.0783 38.44C19.5183 37.88 19.2383 37.1867 19.2383 36.36C19.2383 35.5333 19.5183 34.84 20.0783 34.28C20.6383 33.72 21.3316 33.44 22.1583 33.44C22.9583 33.44 23.6383 33.72 24.1983 34.28C24.7583 34.84 25.0383 35.5333 25.0383 36.36C25.0383 37.1867 24.7583 37.88 24.1983 38.44C23.6383 39 22.9583 39.28 22.1583 39.28Z" fill="#0071DA"/>
<circle cx="25" cy="25" r="23.5" stroke="#0071DA" stroke-width="2"/>
</g>
<defs>
<clipPath id="clip0_914_28">
<rect width="50" height="50" fill="white" transform="translate(50 50) rotate(-180)"/>
</clipPath>
</defs>
</svg>
